<svg width="191" height="62" viewBox="0 0 191 62" fill="none" xmlns="http://www.w3.org/2000/svg">
<g clip-path="url(#clip0)">
<path fill-rule="evenodd" clip-rule="evenodd" d="M30.846 0.391173L51.9394 21.2473L51.9228 21.2413C44.531 20.7344 39.6222 13.1239 22.9756 20.7344C43.7591 19.4564 42.5943 29.7923 55.533 24.8501L55.5811 24.8486L60.3184 29.5328C44.7267 33.686 42.4197 20.7869 22.8613 29.8403C46.1427 28.5009 41.6568 41.2755 60.8992 31.5787L53.0199 39.4517C42.3701 39.3152 42.7719 31.4212 23.087 38.6642C23.9222 39.1682 31.1048 38.7137 35.3259 39.6691C39.9834 40.9036 44.4137 43.8854 48.0283 44.3023L48.1276 44.3413L30.8445 61.6112L-0.000366211 30.8902L30.8445 0.394173L30.846 0.391173ZM68.1857 26.887H190.593V28.3494H68.1857V26.887ZM77.9115 47.7476V56.6135L77.8905 57.6365C77.8905 58.3669 78.0726 58.9234 78.4488 59.2999C78.8265 59.6689 79.3773 59.8563 80.1176 59.8563C81.2071 59.8563 82.2124 59.6194 83.1334 59.1319C84.0558 58.6519 84.7601 57.9485 85.2492 57.0305C85.7443 56.1186 85.9895 55.0956 85.9895 53.9692C85.9895 52.6748 85.6886 51.5124 85.0896 50.4894C84.4892 49.4665 83.6646 48.7496 82.6112 48.3386C81.5638 47.9276 79.9927 47.7326 77.9115 47.7476V47.7476ZM77.9115 46.1532C79.8453 46.1532 81.2703 45.9372 82.1913 45.5053C83.1123 45.0673 83.8181 44.4553 84.3131 43.6679C84.8022 42.8819 85.046 41.8725 85.046 40.6471C85.046 39.4292 84.8022 38.4272 84.3192 37.6398C83.8376 36.8598 83.1469 36.2689 82.2455 35.8579C81.3441 35.4469 79.8994 35.2519 77.91 35.2669V46.1502L77.9115 46.1532ZM85.3545 46.7097C87.9865 47.3156 89.8374 48.0596 90.8984 48.9295C92.4273 50.1685 93.1887 51.7689 93.1887 53.7382C93.1887 55.8186 92.3505 57.5375 90.6756 58.8949C88.6155 60.5448 85.6209 61.3652 81.6962 61.3652H67.5988V60.6138C68.884 60.6138 69.7492 60.4953 70.2097 60.2523C70.6642 60.0153 70.9847 59.7093 71.1668 59.3269C71.3549 58.9444 71.4467 58.0115 71.4467 56.5146V38.5742C71.4467 37.0773 71.3564 36.1384 71.1668 35.7484C70.9847 35.3584 70.6567 35.0524 70.1962 34.823C69.7357 34.586 68.8704 34.475 67.5988 34.475V33.716H80.8926C84.0694 33.716 86.3251 34.001 87.6449 34.565C88.9706 35.1289 90.012 35.9704 90.7735 37.0908C91.5409 38.2112 91.9186 39.4082 91.9186 40.6681C91.9186 42.0045 91.4371 43.1879 90.4665 44.2303C89.5034 45.2668 87.7984 46.0947 85.356 46.7082L85.3545 46.7097ZM110.488 51.9848L106.362 42.465L102.103 51.9848H110.488V51.9848ZM111.187 53.4952H101.39L100.224 56.1891C99.8356 57.0845 99.6505 57.824 99.6505 58.4089C99.6505 59.1889 99.9681 59.7528 100.593 60.1203C100.96 60.3363 101.864 60.5028 103.309 60.6138V61.3652H94.0856V60.6138C95.0773 60.4608 95.8975 60.0468 96.5355 59.3749C97.1751 58.7029 97.9636 57.311 98.9087 55.2066L108.83 33.1461H109.221L119.22 55.8201C120.169 57.9725 120.958 59.3209 121.573 59.8773C122.041 60.3018 122.697 60.5448 123.543 60.6153V61.3667H110.123V60.6153H110.675C111.751 60.6153 112.514 60.4653 112.944 60.1623C113.247 59.9493 113.399 59.6329 113.399 59.2234C113.399 58.9804 113.349 58.7314 113.272 58.4719C113.236 58.3489 113.042 57.839 112.658 56.9405L111.185 53.4952H111.187ZM135.649 33.7175L148.517 50.8644V38.9777C148.517 37.3218 148.295 36.2014 147.848 35.6164C147.231 34.8305 146.2 34.448 144.749 34.475V33.716H153.363V34.475C152.26 34.622 151.526 34.8155 151.145 35.0524C150.764 35.2894 150.468 35.6779 150.259 36.2149C150.049 36.7503 149.944 37.6758 149.944 38.9777V61.9982H149.288L131.654 38.9777V56.5566C131.654 58.1435 131.996 59.2159 132.685 59.7723C133.368 60.3363 134.155 60.6138 135.035 60.6138H135.652V61.3652H126.402V60.6138C127.839 60.6003 128.839 60.2868 129.403 59.6749C129.967 59.0629 130.25 58.025 130.25 56.5566V37.0428L129.692 36.3049C129.141 35.5744 128.655 35.0944 128.228 34.8575C127.808 34.628 127.197 34.502 126.402 34.475V33.716H135.652L135.649 33.7175ZM172.854 44.3023L182.196 56.4741C183.52 58.1854 184.656 59.3479 185.606 59.9598C186.301 60.3918 187.031 60.6138 187.798 60.6138V61.3652H173.97V60.6138C174.846 60.5298 175.408 60.3843 175.662 60.1818C175.922 59.9793 176.05 59.7288 176.05 59.4304C176.05 58.8604 175.448 57.7805 174.244 56.2086L168.153 48.2336L167.17 49.09V56.6345C167.17 58.0745 167.25 58.9729 167.411 59.3284C167.564 59.6839 167.865 59.9823 168.306 60.2328C168.755 60.4908 169.463 60.6153 170.446 60.6153V61.3667H157.045V60.6153H157.927C158.696 60.6153 159.318 60.4698 159.786 60.1833C160.127 59.9958 160.388 59.6689 160.568 59.2024C160.716 58.8829 160.782 58.0265 160.782 56.6345V38.4497C160.782 37.0368 160.716 36.1534 160.568 35.7979C160.428 35.4439 160.133 35.1364 159.698 34.8725C159.257 34.6085 158.669 34.4765 157.927 34.4765H157.045V33.7175H170.265V34.4765C169.37 34.4765 168.681 34.6085 168.213 34.8799C167.873 35.0749 167.605 35.3944 167.411 35.8399C167.25 36.1804 167.17 37.0503 167.17 38.4497V47.0517L177.027 38.7557C178.398 37.6008 179.085 36.6753 179.085 35.9854C179.085 35.4634 178.804 35.0599 178.243 34.76C177.955 34.607 177.239 34.517 176.103 34.475V33.716H186.467V34.475C185.537 34.544 184.814 34.712 184.286 34.9894C183.75 35.2684 182.534 36.2149 180.628 37.8153L172.851 44.3008L172.854 44.3023ZM85.8842 0.337177V6.70727H85.2808C84.9181 5.23286 84.5223 4.17993 84.0844 3.53947C83.648 2.89451 83.0446 2.38604 82.2786 2.00657C81.8527 1.79358 81.1063 1.69309 80.0424 1.69309H78.3404V19.8299C78.3404 21.0313 78.4036 21.7828 78.53 22.0858C78.6625 22.3873 78.9153 22.6482 79.2885 22.8732C79.6677 23.1042 80.1793 23.2167 80.8294 23.2167H81.5879V23.8557H69.6304V23.2167H70.3888C71.0494 23.2167 71.5852 23.0922 71.987 22.8492C72.2804 22.6902 72.5106 22.4113 72.6762 22.0138C72.8026 21.7408 72.8658 21.0133 72.8658 19.8299V1.69309H71.2105C69.6755 1.69309 68.5544 2.02457 67.8592 2.69952C66.8825 3.63396 66.267 4.97338 66.0082 6.70727H65.3701V0.337177H85.8827H85.8842ZM87.9428 0.337177H99.7288V0.982135H99.1419C98.2571 0.982135 97.6476 1.07663 97.3135 1.26562C96.9794 1.4546 96.7447 1.72159 96.6062 2.05307C96.4678 2.39054 96.3925 3.23049 96.3925 4.5684V16.0817C96.3925 18.189 96.5475 19.5809 96.8575 20.2664C97.1675 20.9473 97.6747 21.5098 98.3805 21.9658C99.0877 22.4158 99.9786 22.6407 101.059 22.6407C102.295 22.6407 103.348 22.3573 104.215 21.7828C105.089 21.2083 105.738 20.4209 106.17 19.4144C106.601 18.408 106.82 16.6561 106.82 14.1573V4.5669C106.82 3.51397 106.71 2.76102 106.498 2.31105C106.285 1.86108 106.015 1.5476 105.693 1.37661C105.187 1.10963 104.474 0.980635 103.548 0.980635V0.335677H111.447V0.980635H110.976C110.338 0.980635 109.804 1.11113 109.378 1.37661C108.952 1.64359 108.642 2.03957 108.452 2.57203C108.308 2.94551 108.234 3.60847 108.234 4.5669V13.5003C108.234 16.2647 108.057 18.2595 107.706 19.4849C107.349 20.7104 106.487 21.8353 105.119 22.8657C103.751 23.8962 101.876 24.4106 99.5076 24.4106C97.5362 24.4106 96.0058 24.1376 94.9253 23.5932C93.4596 22.8537 92.4183 21.9058 91.8088 20.7524C91.2054 19.5914 90.9014 18.042 90.9014 16.0817V4.5684C90.9014 3.21849 90.8321 2.37855 90.6832 2.04707C90.5387 1.71559 90.2859 1.4546 89.9247 1.25962C89.5681 1.05863 88.9074 0.970136 87.9413 0.982135V0.337177H87.9428ZM121.206 13.1359V19.7309C121.206 21.0028 121.281 21.8023 121.43 22.1278C121.585 22.4593 121.85 22.7262 122.229 22.9212C122.614 23.1162 123.328 23.2182 124.374 23.2182V23.8572H112.681V23.2182C113.739 23.2182 114.452 23.1177 114.831 22.9107C115.205 22.7097 115.469 22.4488 115.624 22.1233C115.773 21.7978 115.849 21.0043 115.849 19.7324V4.47241C115.849 3.19899 115.773 2.40104 115.624 2.06957C115.469 1.73809 115.205 1.4771 114.819 1.28212C114.44 1.08113 113.727 0.986635 112.681 0.986635V0.341676H123.293C126.059 0.341676 128.076 0.542663 129.358 0.934138C130.634 1.32561 131.681 2.05307 132.491 3.112C133.296 4.16493 133.704 5.40835 133.704 6.82876C133.704 8.56265 133.094 9.99655 131.881 11.132C131.105 11.8489 130.024 12.3874 128.632 12.7414L134.122 20.7029C134.841 21.7333 135.353 22.3723 135.651 22.6272C136.117 22.9887 136.646 23.1837 137.255 23.2197V23.8587H130.063L122.705 13.1374H121.204L121.206 13.1359ZM121.206 1.60459V11.9044H122.166C123.724 11.9044 124.891 11.7619 125.668 11.4665C126.444 11.171 127.054 10.637 127.496 9.86756C127.939 9.09811 128.163 8.09768 128.163 6.86026C128.163 5.06637 127.755 3.74646 126.938 2.88851C126.127 2.03057 124.816 1.60459 123.006 1.60459H121.206V1.60459ZM150.272 0.0116977C153.911 -0.130793 156.866 0.964136 159.143 3.28599C161.414 5.61234 162.552 8.51915 162.552 12.0109C162.552 14.9942 161.706 17.6161 160.01 19.8839C157.762 22.8912 154.589 24.3941 150.49 24.3941C146.385 24.3941 143.207 22.9617 140.959 20.0909C139.187 17.823 138.296 15.1367 138.296 12.0289C138.296 8.53565 139.452 5.62434 141.758 3.29799C144.069 0.965636 146.903 -0.129293 150.272 0.0131976V0.0116977ZM150.48 1.11863C148.386 1.11863 146.8 2.21956 145.708 4.41541C144.823 6.2153 144.379 8.80713 144.379 12.1819C144.379 16.1957 145.064 19.161 146.432 21.0793C147.386 22.4233 148.725 23.0922 150.445 23.0922C151.601 23.0922 152.567 22.8027 153.343 22.2283C154.326 21.4888 155.097 20.3039 155.649 18.6765C156.201 17.0551 156.477 14.9357 156.477 12.3244C156.477 9.21061 156.195 6.88425 155.631 5.34535C155.068 3.80045 154.355 2.71152 153.48 2.07256C152.612 1.43961 151.611 1.12013 150.48 1.12013V1.11863ZM172.372 0.337177L183.641 14.9237V4.81289C183.641 3.40448 183.445 2.45054 183.054 1.95407C182.513 1.28512 181.61 0.959637 180.34 0.983635V0.338677H187.883V0.983635C186.917 1.10813 186.272 1.27312 185.94 1.4756C185.606 1.67659 185.349 2.00807 185.163 2.46404C184.98 2.92001 184.888 3.70746 184.888 4.81439V24.3971H184.313L168.872 4.81439V19.7669C168.872 21.1168 169.171 22.0288 169.775 22.5012C170.372 22.9812 171.063 23.2182 171.833 23.2182H172.374V23.8572H164.273V23.2182C165.533 23.2062 166.406 22.9392 166.901 22.4188C167.396 21.8983 167.642 21.0163 167.642 19.7669V3.16899L167.153 2.54203C166.67 1.92107 166.246 1.5116 165.871 1.31061C165.504 1.11563 164.968 1.00913 164.273 0.985135V0.340177H172.374L172.372 0.337177Z" fill="white"/>
</g>
<defs>
<clipPath id="clip0">
<rect width="190.593" height="62" fill="white"/>
</clipPath>
</defs>
</svg>
